<mxfile host="bf81a574-e6a7-479a-a3de-548ccc939733" modified="2020-07-30T11:33:36.113Z" agent="5.0 (Windows NT 10.0; Win64; x64) AppleWebKit/537.36 (KHTML, like Gecko) Code/1.47.3 Chrome/78.0.3904.130 Electron/7.3.2 Safari/537.36" etag="3Jmpzbk7cXwm9iZK8rs_" version="13.1.3" pages="2">
    <diagram id="6hGFLwfOUW9BJ-s0fimq" name="达人移除圈子成员">
        <mxGraphModel dx="600" dy="662" grid="1" gridSize="10" guides="1" tooltips="1" connect="1" arrows="1" fold="1" page="1" pageScale="1" pageWidth="827" pageHeight="1169" math="0" shadow="0">
            <root>
                <mxCell id="0"/>
                <mxCell id="1" parent="0"/>
                <mxCell id="13" style="edgeStyle=orthogonalEdgeStyle;rounded=0;orthogonalLoop=1;jettySize=auto;html=1;" parent="1" source="11" target="8" edge="1">
                    <mxGeometry relative="1" as="geometry"/>
                </mxCell>
                <mxCell id="27" value="否" style="edgeLabel;html=1;align=center;verticalAlign=middle;resizable=0;points=[];" parent="13" vertex="1" connectable="0">
                    <mxGeometry x="-0.28" relative="1" as="geometry">
                        <mxPoint as="offset"/>
                    </mxGeometry>
                </mxCell>
                <mxCell id="29" style="edgeStyle=orthogonalEdgeStyle;rounded=0;orthogonalLoop=1;jettySize=auto;html=1;entryX=0.5;entryY=0;entryDx=0;entryDy=0;" parent="1" source="11" target="4" edge="1">
                    <mxGeometry relative="1" as="geometry">
                        <Array as="points">
                            <mxPoint x="260" y="320"/>
                            <mxPoint x="260" y="320"/>
                        </Array>
                    </mxGeometry>
                </mxCell>
                <mxCell id="30" value="是" style="edgeLabel;html=1;align=center;verticalAlign=middle;resizable=0;points=[];" parent="29" vertex="1" connectable="0">
                    <mxGeometry y="12" relative="1" as="geometry">
                        <mxPoint y="-1" as="offset"/>
                    </mxGeometry>
                </mxCell>
                <mxCell id="11" value="是否圈主" style="strokeWidth=2;html=1;shape=mxgraph.flowchart.decision;whiteSpace=wrap;" parent="1" vertex="1">
                    <mxGeometry x="185" y="220" width="150" height="80" as="geometry"/>
                </mxCell>
                <mxCell id="18" style="edgeStyle=orthogonalEdgeStyle;rounded=0;orthogonalLoop=1;jettySize=auto;html=1;entryX=0.5;entryY=0;entryDx=0;entryDy=0;" parent="1" source="4" target="6" edge="1">
                    <mxGeometry relative="1" as="geometry"/>
                </mxCell>
                <mxCell id="4" value="移除成员" style="rounded=1;whiteSpace=wrap;html=1;absoluteArcSize=1;arcSize=14;strokeWidth=2;" parent="1" vertex="1">
                    <mxGeometry x="185" y="380" width="140" height="50" as="geometry"/>
                </mxCell>
                <mxCell id="25" style="edgeStyle=orthogonalEdgeStyle;rounded=0;orthogonalLoop=1;jettySize=auto;html=1;entryX=0.5;entryY=0;entryDx=0;entryDy=0;" parent="1" source="6" target="24" edge="1">
                    <mxGeometry relative="1" as="geometry"/>
                </mxCell>
                <mxCell id="6" value="返回操作结果" style="rounded=1;whiteSpace=wrap;html=1;absoluteArcSize=1;arcSize=14;strokeWidth=2;" parent="1" vertex="1">
                    <mxGeometry x="190" y="500" width="140" height="50" as="geometry"/>
                </mxCell>
                <mxCell id="26" style="edgeStyle=orthogonalEdgeStyle;rounded=0;orthogonalLoop=1;jettySize=auto;html=1;entryX=1;entryY=0.5;entryDx=0;entryDy=0;" parent="1" source="8" target="24" edge="1">
                    <mxGeometry relative="1" as="geometry">
                        <Array as="points">
                            <mxPoint x="450" y="695"/>
                        </Array>
                    </mxGeometry>
                </mxCell>
                <mxCell id="8" value="返回圈主验证失败结果" style="rounded=1;whiteSpace=wrap;html=1;absoluteArcSize=1;arcSize=14;strokeWidth=2;" parent="1" vertex="1">
                    <mxGeometry x="410" y="235" width="140" height="50" as="geometry"/>
                </mxCell>
                <mxCell id="23" style="edgeStyle=orthogonalEdgeStyle;rounded=0;orthogonalLoop=1;jettySize=auto;html=1;entryX=0.5;entryY=0;entryDx=0;entryDy=0;entryPerimeter=0;" parent="1" source="21" target="11" edge="1">
                    <mxGeometry relative="1" as="geometry"/>
                </mxCell>
                <mxCell id="21" value="开始" style="rounded=1;whiteSpace=wrap;html=1;absoluteArcSize=1;arcSize=14;strokeWidth=2;" parent="1" vertex="1">
                    <mxGeometry x="190" y="100" width="140" height="50" as="geometry"/>
                </mxCell>
                <mxCell id="24" value="结束" style="rounded=1;whiteSpace=wrap;html=1;absoluteArcSize=1;arcSize=14;strokeWidth=2;" parent="1" vertex="1">
                    <mxGeometry x="190" y="680" width="140" height="50" as="geometry"/>
                </mxCell>
            </root>
        </mxGraphModel>
    </diagram>
    <diagram id="alyAEunzmEM5A1kkdMTH" name="加入圈子流程">
        <mxGraphModel dx="600" dy="662" grid="1" gridSize="10" guides="1" tooltips="1" connect="1" arrows="1" fold="1" page="1" pageScale="1" pageWidth="827" pageHeight="1169" math="0" shadow="0">
            <root>
                <mxCell id="ol0-VZtt7I_95g2rVBkA-0"/>
                <mxCell id="ol0-VZtt7I_95g2rVBkA-1" parent="ol0-VZtt7I_95g2rVBkA-0"/>
                <mxCell id="hOhE97xM_r_KDk0UDMLM-6" value="" style="edgeStyle=orthogonalEdgeStyle;rounded=0;orthogonalLoop=1;jettySize=auto;html=1;" edge="1" parent="ol0-VZtt7I_95g2rVBkA-1" source="hOhE97xM_r_KDk0UDMLM-0" target="hOhE97xM_r_KDk0UDMLM-1">
                    <mxGeometry relative="1" as="geometry"/>
                </mxCell>
                <mxCell id="hOhE97xM_r_KDk0UDMLM-0" value="开始" style="rounded=1;whiteSpace=wrap;html=1;absoluteArcSize=1;arcSize=14;strokeWidth=2;" vertex="1" parent="ol0-VZtt7I_95g2rVBkA-1">
                    <mxGeometry x="250" y="80" width="100" height="50" as="geometry"/>
                </mxCell>
                <mxCell id="hOhE97xM_r_KDk0UDMLM-7" value="" style="edgeStyle=orthogonalEdgeStyle;rounded=0;orthogonalLoop=1;jettySize=auto;html=1;" edge="1" parent="ol0-VZtt7I_95g2rVBkA-1" source="hOhE97xM_r_KDk0UDMLM-1" target="hOhE97xM_r_KDk0UDMLM-2">
                    <mxGeometry relative="1" as="geometry"/>
                </mxCell>
                <mxCell id="hOhE97xM_r_KDk0UDMLM-1" value="准备加入圈子" style="rounded=1;whiteSpace=wrap;html=1;absoluteArcSize=1;arcSize=14;strokeWidth=2;" vertex="1" parent="ol0-VZtt7I_95g2rVBkA-1">
                    <mxGeometry x="250" y="180" width="100" height="50" as="geometry"/>
                </mxCell>
                <mxCell id="hOhE97xM_r_KDk0UDMLM-13" value="" style="edgeStyle=orthogonalEdgeStyle;rounded=0;orthogonalLoop=1;jettySize=auto;html=1;" edge="1" parent="ol0-VZtt7I_95g2rVBkA-1" source="hOhE97xM_r_KDk0UDMLM-2" target="hOhE97xM_r_KDk0UDMLM-3">
                    <mxGeometry relative="1" as="geometry"/>
                </mxCell>
                <mxCell id="hOhE97xM_r_KDk0UDMLM-2" value="是否关注服务号" style="strokeWidth=2;html=1;shape=mxgraph.flowchart.decision;whiteSpace=wrap;" vertex="1" parent="ol0-VZtt7I_95g2rVBkA-1">
                    <mxGeometry x="250" y="280" width="100" height="100" as="geometry"/>
                </mxCell>
                <mxCell id="hOhE97xM_r_KDk0UDMLM-14" value="" style="edgeStyle=orthogonalEdgeStyle;rounded=0;orthogonalLoop=1;jettySize=auto;html=1;" edge="1" parent="ol0-VZtt7I_95g2rVBkA-1" source="hOhE97xM_r_KDk0UDMLM-3" target="hOhE97xM_r_KDk0UDMLM-4">
                    <mxGeometry relative="1" as="geometry"/>
                </mxCell>
                <mxCell id="hOhE97xM_r_KDk0UDMLM-3" value="加入圈子" style="rounded=1;whiteSpace=wrap;html=1;absoluteArcSize=1;arcSize=14;strokeWidth=2;" vertex="1" parent="ol0-VZtt7I_95g2rVBkA-1">
                    <mxGeometry x="250" y="440" width="100" height="50" as="geometry"/>
                </mxCell>
                <mxCell id="hOhE97xM_r_KDk0UDMLM-4" value="完成" style="rounded=1;whiteSpace=wrap;html=1;absoluteArcSize=1;arcSize=14;strokeWidth=2;" vertex="1" parent="ol0-VZtt7I_95g2rVBkA-1">
                    <mxGeometry x="250" y="560" width="100" height="50" as="geometry"/>
                </mxCell>
                <mxCell id="hOhE97xM_r_KDk0UDMLM-12" value="" style="edgeStyle=orthogonalEdgeStyle;rounded=0;orthogonalLoop=1;jettySize=auto;html=1;" edge="1" parent="ol0-VZtt7I_95g2rVBkA-1" source="hOhE97xM_r_KDk0UDMLM-5">
                    <mxGeometry relative="1" as="geometry">
                        <mxPoint x="340" y="330" as="targetPoint"/>
                    </mxGeometry>
                </mxCell>
                <mxCell id="hOhE97xM_r_KDk0UDMLM-25" value="" style="edgeStyle=orthogonalEdgeStyle;rounded=0;orthogonalLoop=1;jettySize=auto;html=1;" edge="1" parent="ol0-VZtt7I_95g2rVBkA-1" source="hOhE97xM_r_KDk0UDMLM-5" target="hOhE97xM_r_KDk0UDMLM-17">
                    <mxGeometry relative="1" as="geometry"/>
                </mxCell>
                <mxCell id="hOhE97xM_r_KDk0UDMLM-5" value="获取二维码" style="rounded=1;whiteSpace=wrap;html=1;absoluteArcSize=1;arcSize=14;strokeWidth=2;" vertex="1" parent="ol0-VZtt7I_95g2rVBkA-1">
                    <mxGeometry x="420" y="305" width="100" height="50" as="geometry"/>
                </mxCell>
                <mxCell id="hOhE97xM_r_KDk0UDMLM-9" value="否" style="text;html=1;align=center;verticalAlign=middle;resizable=0;points=[];autosize=1;" vertex="1" parent="ol0-VZtt7I_95g2rVBkA-1">
                    <mxGeometry x="378.5" y="330" width="30" height="20" as="geometry"/>
                </mxCell>
                <mxCell id="hOhE97xM_r_KDk0UDMLM-10" value="" style="edgeStyle=orthogonalEdgeStyle;rounded=0;orthogonalLoop=1;jettySize=auto;html=1;" edge="1" parent="ol0-VZtt7I_95g2rVBkA-1" source="hOhE97xM_r_KDk0UDMLM-2">
                    <mxGeometry relative="1" as="geometry">
                        <mxPoint x="350" y="330" as="sourcePoint"/>
                        <mxPoint x="420" y="330" as="targetPoint"/>
                    </mxGeometry>
                </mxCell>
                <mxCell id="hOhE97xM_r_KDk0UDMLM-28" style="edgeStyle=orthogonalEdgeStyle;rounded=0;orthogonalLoop=1;jettySize=auto;html=1;" edge="1" parent="ol0-VZtt7I_95g2rVBkA-1" source="hOhE97xM_r_KDk0UDMLM-17" target="hOhE97xM_r_KDk0UDMLM-4">
                    <mxGeometry relative="1" as="geometry">
                        <Array as="points">
                            <mxPoint x="640" y="585"/>
                        </Array>
                    </mxGeometry>
                </mxCell>
                <mxCell id="hOhE97xM_r_KDk0UDMLM-29" value="否" style="edgeLabel;html=1;align=center;verticalAlign=middle;resizable=0;points=[];" vertex="1" connectable="0" parent="hOhE97xM_r_KDk0UDMLM-28">
                    <mxGeometry x="-0.3899" y="6" relative="1" as="geometry">
                        <mxPoint as="offset"/>
                    </mxGeometry>
                </mxCell>
                <mxCell id="hOhE97xM_r_KDk0UDMLM-34" style="edgeStyle=orthogonalEdgeStyle;rounded=0;orthogonalLoop=1;jettySize=auto;html=1;" edge="1" parent="ol0-VZtt7I_95g2rVBkA-1" source="hOhE97xM_r_KDk0UDMLM-17" target="hOhE97xM_r_KDk0UDMLM-18">
                    <mxGeometry relative="1" as="geometry"/>
                </mxCell>
                <mxCell id="hOhE97xM_r_KDk0UDMLM-44" value="是" style="edgeLabel;html=1;align=center;verticalAlign=middle;resizable=0;points=[];" vertex="1" connectable="0" parent="hOhE97xM_r_KDk0UDMLM-34">
                    <mxGeometry x="0.2667" y="-4" relative="1" as="geometry">
                        <mxPoint as="offset"/>
                    </mxGeometry>
                </mxCell>
                <mxCell id="hOhE97xM_r_KDk0UDMLM-17" value="用户是否扫二维码" style="strokeWidth=2;html=1;shape=mxgraph.flowchart.decision;whiteSpace=wrap;" vertex="1" parent="ol0-VZtt7I_95g2rVBkA-1">
                    <mxGeometry x="590" y="280" width="100" height="100" as="geometry"/>
                </mxCell>
                <mxCell id="hOhE97xM_r_KDk0UDMLM-45" style="edgeStyle=orthogonalEdgeStyle;rounded=0;orthogonalLoop=1;jettySize=auto;html=1;" edge="1" parent="ol0-VZtt7I_95g2rVBkA-1" source="hOhE97xM_r_KDk0UDMLM-18" target="hOhE97xM_r_KDk0UDMLM-20">
                    <mxGeometry relative="1" as="geometry">
                        <Array as="points">
                            <mxPoint x="830" y="380"/>
                            <mxPoint x="830" y="380"/>
                        </Array>
                    </mxGeometry>
                </mxCell>
                <mxCell id="hOhE97xM_r_KDk0UDMLM-18" value="弹出服务号关注页面" style="rounded=1;whiteSpace=wrap;html=1;absoluteArcSize=1;arcSize=14;strokeWidth=2;" vertex="1" parent="ol0-VZtt7I_95g2rVBkA-1">
                    <mxGeometry x="790" y="305" width="100" height="50" as="geometry"/>
                </mxCell>
                <mxCell id="hOhE97xM_r_KDk0UDMLM-36" value="" style="edgeStyle=orthogonalEdgeStyle;rounded=0;orthogonalLoop=1;jettySize=auto;html=1;" edge="1" parent="ol0-VZtt7I_95g2rVBkA-1" source="hOhE97xM_r_KDk0UDMLM-20" target="hOhE97xM_r_KDk0UDMLM-21">
                    <mxGeometry relative="1" as="geometry"/>
                </mxCell>
                <mxCell id="hOhE97xM_r_KDk0UDMLM-52" value="是" style="edgeLabel;html=1;align=center;verticalAlign=middle;resizable=0;points=[];" vertex="1" connectable="0" parent="hOhE97xM_r_KDk0UDMLM-36">
                    <mxGeometry x="-0.3556" relative="1" as="geometry">
                        <mxPoint as="offset"/>
                    </mxGeometry>
                </mxCell>
                <mxCell id="hOhE97xM_r_KDk0UDMLM-39" style="edgeStyle=orthogonalEdgeStyle;rounded=0;orthogonalLoop=1;jettySize=auto;html=1;" edge="1" parent="ol0-VZtt7I_95g2rVBkA-1" source="hOhE97xM_r_KDk0UDMLM-20" target="hOhE97xM_r_KDk0UDMLM-4">
                    <mxGeometry relative="1" as="geometry">
                        <Array as="points">
                            <mxPoint x="640" y="470"/>
                            <mxPoint x="640" y="585"/>
                        </Array>
                    </mxGeometry>
                </mxCell>
                <mxCell id="hOhE97xM_r_KDk0UDMLM-41" value="否" style="edgeLabel;html=1;align=center;verticalAlign=middle;resizable=0;points=[];" vertex="1" connectable="0" parent="hOhE97xM_r_KDk0UDMLM-39">
                    <mxGeometry x="-0.6661" y="6" relative="1" as="geometry">
                        <mxPoint as="offset"/>
                    </mxGeometry>
                </mxCell>
                <mxCell id="hOhE97xM_r_KDk0UDMLM-20" value="用户是否点击关注" style="strokeWidth=2;html=1;shape=mxgraph.flowchart.decision;whiteSpace=wrap;" vertex="1" parent="ol0-VZtt7I_95g2rVBkA-1">
                    <mxGeometry x="780" y="415" width="100" height="100" as="geometry"/>
                </mxCell>
                <mxCell id="hOhE97xM_r_KDk0UDMLM-37" value="" style="edgeStyle=orthogonalEdgeStyle;rounded=0;orthogonalLoop=1;jettySize=auto;html=1;" edge="1" parent="ol0-VZtt7I_95g2rVBkA-1" source="hOhE97xM_r_KDk0UDMLM-21" target="hOhE97xM_r_KDk0UDMLM-22">
                    <mxGeometry relative="1" as="geometry"/>
                </mxCell>
                <mxCell id="hOhE97xM_r_KDk0UDMLM-21" value="接收微信服务通知" style="rounded=1;whiteSpace=wrap;html=1;absoluteArcSize=1;arcSize=14;strokeWidth=2;" vertex="1" parent="ol0-VZtt7I_95g2rVBkA-1">
                    <mxGeometry x="780" y="585" width="100" height="50" as="geometry"/>
                </mxCell>
                <mxCell id="hOhE97xM_r_KDk0UDMLM-38" value="" style="edgeStyle=orthogonalEdgeStyle;rounded=0;orthogonalLoop=1;jettySize=auto;html=1;" edge="1" parent="ol0-VZtt7I_95g2rVBkA-1" source="hOhE97xM_r_KDk0UDMLM-22" target="hOhE97xM_r_KDk0UDMLM-23">
                    <mxGeometry relative="1" as="geometry"/>
                </mxCell>
                <mxCell id="hOhE97xM_r_KDk0UDMLM-22" value="加入圈子&lt;br&gt;" style="rounded=1;whiteSpace=wrap;html=1;absoluteArcSize=1;arcSize=14;strokeWidth=2;" vertex="1" parent="ol0-VZtt7I_95g2rVBkA-1">
                    <mxGeometry x="780" y="800" width="100" height="50" as="geometry"/>
                </mxCell>
                <mxCell id="hOhE97xM_r_KDk0UDMLM-24" style="edgeStyle=orthogonalEdgeStyle;rounded=0;orthogonalLoop=1;jettySize=auto;html=1;" edge="1" parent="ol0-VZtt7I_95g2rVBkA-1" source="hOhE97xM_r_KDk0UDMLM-23" target="hOhE97xM_r_KDk0UDMLM-4">
                    <mxGeometry relative="1" as="geometry"/>
                </mxCell>
                <mxCell id="hOhE97xM_r_KDk0UDMLM-23" value="推送模板消息" style="rounded=1;whiteSpace=wrap;html=1;absoluteArcSize=1;arcSize=14;strokeWidth=2;" vertex="1" parent="ol0-VZtt7I_95g2rVBkA-1">
                    <mxGeometry x="520" y="800" width="100" height="50" as="geometry"/>
                </mxCell>
            </root>
        </mxGraphModel>
    </diagram>
</mxfile>